<svg xmlns="http://www.w3.org/2000/svg" viewBox="0 0 1292.39 356.88">
	<defs>
		<style>#Layer_2{opacity:0.2;}.cls-1{fill:#fff;}.cls-10,.cls-2,.cls-3,.cls-4,.cls-5,.cls-7,.cls-8,.cls-9{fill:none;}.cls-2,.cls-3,.cls-6,.cls-7,.cls-8,.cls-9{stroke:#fff;}.cls-2,.cls-3,.cls-6{stroke-miterlimit:10;}.cls-3,.cls-6{stroke-width:0.5px;}.cls-4,.cls-5{stroke:#231f20;}.cls-10,.cls-4,.cls-7,.cls-8{stroke-linejoin:round;}.cls-10,.cls-5,.cls-7,.cls-9{stroke-linecap:round;}.cls-5,.cls-9{stroke-linejoin:bevel;}.cls-6{fill:#161e25;}.cls-10{stroke:#000;}
		</style>
	</defs>
	<title>Asset 13</title><g id="Layer_2" data-name="Layer 2"><g id="Layer_1-2" data-name="Layer 1"><polygon class="cls-1" points="224.17 289.33 178.34 289.33 167.24 278.23 167.24 232.4 178.34 221.3 224.17 221.3 235.27 232.4 235.27 278.23 224.17 289.33"/><polygon class="cls-2" points="185.17 329.97 139.34 329.97 128.24 318.87 128.24 273.04 139.34 261.94 185.17 261.94 196.27 273.04 196.27 318.87 185.17 329.97"/><polygon class="cls-3" points="40.95 224.59 11.29 224.59 4.11 217.4 4.11 187.74 11.29 180.55 40.95 180.55 48.14 187.74 48.14 217.4 40.95 224.59"/><polygon class="cls-3" points="123.32 114.84 103.45 114.84 98.64 110.02 98.64 90.15 103.45 85.34 123.32 85.34 128.14 90.15 128.14 110.02 123.32 114.84"/><polyline class="cls-4" points="224.47 273.6 224.47 244.07 218.43 238.17 191.32 238.17 190.11 239.37 188.91 240.58 188.91 244.07 188.91 261.79 184.21 266.48"/><polyline class="cls-4" points="176.96 238.16 176.96 267.69 183 273.6 210.11 273.6 211.32 272.39 212.53 271.18 212.53 267.69 212.53 249.97 217.22 245.28"/><polyline class="cls-4" points="183 279.64 212.53 279.64 218.43 273.6 218.43 246.49 217.22 245.28 216.01 244.07 212.53 244.07 194.81 244.07 190.11 239.37"/><polyline class="cls-4" points="211.32 272.39 209 270.07 206.62 267.69 188.91 267.69 185.42 267.69 184.21 266.48 183 265.27 183 238.16 188.91 232.13 218.43 232.13"/><rect class="cls-5" x="194.66" y="249.82" width="12.12" height="12.12"/><polygon class="cls-1" points="1067.38 356.88 1028.46 356.88 1019.03 347.44 1019.03 308.52 1028.46 299.09 1067.38 299.09 1076.81 308.52 1076.81 347.44 1067.38 356.88"/><polyline class="cls-4" points="1067.64 343.51 1067.64 318.43 1062.51 313.42 1039.48 313.42 1038.46 314.44 1037.43 315.47 1037.43 318.43 1037.43 333.48 1033.44 337.47"/><polyline class="cls-4" points="1027.29 313.42 1027.29 338.49 1032.42 343.51 1055.44 343.51 1056.47 342.48 1057.49 341.46 1057.49 338.49 1057.49 323.45 1061.48 319.46"/><polyline class="cls-4" points="1032.42 348.64 1057.49 348.64 1062.51 343.51 1062.51 320.48 1061.48 319.46 1060.46 318.43 1057.49 318.43 1042.45 318.43 1038.46 314.44"/><polyline class="cls-4" points="1056.47 342.48 1054.5 340.51 1052.48 338.49 1037.43 338.49 1034.47 338.49 1033.44 337.47 1032.42 336.44 1032.42 313.42 1037.43 308.29 1062.51 308.29"/><rect class="cls-5" x="1042.32" y="323.32" width="10.29" height="10.29"/><polygon class="cls-1" points="1121.91 188.47 1082.99 188.47 1073.56 179.04 1073.56 140.12 1082.99 130.69 1121.91 130.69 1131.34 140.12 1131.34 179.04 1121.91 188.47"/><polygon class="cls-6" points="1039.05 30.13 1018.92 30.13 1014.05 25.25 1014.05 5.13 1018.92 0.25 1039.05 0.25 1043.92 5.13 1043.92 25.25 1039.05 30.13"/><polygon class="cls-2" points="1150.79 219.21 1111.51 219.21 1101.99 209.67 1101.99 170.31 1111.51 160.78 1150.79 160.78 1160.3 170.31 1160.3 209.67 1150.79 219.21"/><path class="cls-7" d="M1148.16,192.67a15,15,0,0,1-.41,2.43h0a51.42,51.42,0,0,1-14.52-4.24l-1.09-.51q-2.31-1.14-4.5-2.49h0l-.2-.13h0a52.7,52.7,0,0,1-7.32-5.54,15.54,15.54,0,0,1,7.06-5.45,3.28,3.28,0,0,0,1.35,3.2c1,.72,5.66,3.81,8.77,5.89l2.92,2,5.92,1.59,1.37,3.16Z"/><path class="cls-7" d="M1132,199.18a6.4,6.4,0,0,1-1.47-3.15l.39-4.22a1.18,1.18,0,0,1,.57-1l.68-.42q-2.31-1.14-4.5-2.49h0l-.2-.13h0a52.7,52.7,0,0,1-7.32-5.54,15.5,15.5,0,0,0-2.49,5.4h0c1.18,7.52,15.09,15.93,22.51,18.07l0-.08a2.92,2.92,0,0,1,.8-1.17C1135.75,202.29,1133.28,200.67,1132,199.18Zm-7.44-4.12a4,4,0,1,1,4-4A4,4,0,0,1,1124.53,195.06Z"/><path class="cls-7" d="M1140.12,205.65c-.45.85-2.88,4.55-2.88,4.55a94.39,94.39,0,0,1-11.2-6.9c-2-1.36-8.86-6.17-8.86-12.63a15.76,15.76,0,0,1,.43-3.09C1118.79,195.1,1132.7,203.51,1140.12,205.65Z"/><path class="cls-7" d="M1148.22,191.28c0,.47,0,.93-.06,1.39l-.67-.15-1.37-3.16-5.92-1.59-2.92-2c-3.11-2.08-7.73-5.17-8.77-5.89a3.28,3.28,0,0,1-1.35-3.2h0a15.44,15.44,0,0,1,4.41-1c.37,0,.75,0,1.13,0a15.44,15.44,0,0,1,10.86,4.44,15.74,15.74,0,0,1,3.28,4.69A15.52,15.52,0,0,1,1148.22,191.28Z"/><path class="cls-7" d="M1147.47,176.16l-3.91,4a15.44,15.44,0,0,0-10.86-4.44c-.38,0-.76,0-1.13,0a15.44,15.44,0,0,0-4.41,1h0a15.54,15.54,0,0,0-7.06,5.45l-4.39-3.48a21.06,21.06,0,0,1,31.76-2.54Z"/><path class="cls-7" d="M1146.34,203.1a9.46,9.46,0,0,1-.71,1.55c-2.49-.22-4.21,1-7.16,5.82l-1.23-.27s2.43-3.7,2.88-4.55l0-.08a2.92,2.92,0,0,1,.8-1.17c1-.9,3.94-1.39,4.22-1.83h0l.27-.61C1146.62,202.58,1146.34,203.1,1146.34,203.1Z"/><path class="cls-7" d="M1147.75,195.1a51.42,51.42,0,0,1-14.52-4.24l-1.09-.51-.68.42a1.18,1.18,0,0,0-.57,1l-.39,4.22a6.4,6.4,0,0,0,1.47,3.15c1.31,1.49,3.78,3.11,9,5.22,1-.9,3.94-1.39,4.22-1.83h0l.27-.61a44.56,44.56,0,0,0,2.3-6.84Zm-5.4,4.11c-.64,2.25-2.16,3.79-3.38,3.44l0,0-.77-.19-1.28-.73-.57-.84-.79-1-.37-1.39.7-2.46,1.05-1,1.21-.45.92-.41,1.48.06.88.3h0C1142.56,195,1143,197,1142.35,199.21Z"/><path class="cls-7" d="M1141.39,194.52l-.08,0c-1.22-.36-2.74,1.18-3.38,3.43s-.19,4.31,1,4.7l-.77-.19-1.28-.73-.57-.84-.79-1-.37-1.39.7-2.46,1.05-1,1.21-.45.92-.41,1.48.06Z"/><path class="cls-7" d="M1142.35,199.21c-.64,2.25-2.16,3.79-3.38,3.44l0,0c-1.19-.39-1.64-2.47-1-4.7s2.16-3.79,3.38-3.43l.08,0h0C1142.56,195,1143,197,1142.35,199.21Z"/><path class="cls-7" d="M1145.63,204.65a18.23,18.23,0,0,1-6.33,6l-.83-.18C1141.42,205.66,1143.14,204.43,1145.63,204.65Z"/><ellipse class="cls-7" cx="1124.53" cy="191.09" rx="3.96" ry="3.97"/><path class="cls-7" d="M1146.84,184.85c-4.3,1.11-9.19-2.61-9.19-2.61L1133,178.7l.32-1.72-1.57-.82-.16-.4"/><line class="cls-7" x1="1137.28" y1="185.82" x2="1137.65" y2="182.24"/><polyline class="cls-4" points="1122.17 175.11 1122.17 150.03 1117.04 145.02 1094.01 145.02 1092.99 146.04 1091.96 147.07 1091.96 150.03 1091.96 165.08 1087.97 169.07"/><polyline class="cls-4" points="1081.81 145.01 1081.81 170.09 1086.94 175.11 1109.97 175.11 1111 174.08 1112.02 173.06 1112.02 170.09 1112.02 155.05 1116.01 151.06"/><polyline class="cls-4" points="1086.94 180.24 1112.02 180.24 1117.04 175.11 1117.04 152.08 1116.01 151.06 1114.99 150.03 1112.02 150.03 1096.97 150.03 1092.99 146.04"/><polyline class="cls-4" points="1111 174.08 1109.03 172.11 1107.01 170.09 1091.96 170.09 1089 170.09 1087.97 169.07 1086.94 168.04 1086.94 145.01 1091.96 139.88 1117.04 139.88"/><rect class="cls-5" x="1096.85" y="154.92" width="10.29" height="10.29"/><polyline class="cls-8" points="1218.9 62.69 1218.9 44.7 1215.22 41.1 1198.7 41.1 1197.97 41.84 1197.23 42.58 1197.23 44.7 1197.23 55.5 1194.37 58.36"/><polyline class="cls-8" points="1189.95 41.1 1189.95 59.1 1193.63 62.69 1210.15 62.69 1210.89 61.96 1211.63 61.22 1211.63 59.09 1211.63 48.3 1214.49 45.44"/><polyline class="cls-8" points="1193.63 66.38 1211.63 66.38 1215.22 62.69 1215.22 46.17 1214.49 45.44 1213.75 44.7 1211.63 44.7 1200.83 44.7 1197.97 41.84"/><polyline class="cls-8" points="1210.89 61.96 1209.48 60.55 1208.03 59.09 1197.23 59.09 1195.11 59.09 1194.37 58.36 1193.63 57.62 1193.63 41.1 1197.23 37.42 1215.22 37.42"/><rect class="cls-9" x="1200.74" y="48.21" width="7.38" height="7.38"/><polygon class="cls-1" points="181.62 158.88 158.84 158.88 153.32 153.36 153.32 130.58 158.84 125.06 181.62 125.06 187.14 130.58 187.14 153.36 181.62 158.88"/><polyline class="cls-4" points="181.77 151.05 181.77 136.38 178.77 133.44 165.29 133.44 164.69 134.04 164.09 134.65 164.09 136.38 164.09 145.18 161.76 147.52"/><polyline class="cls-4" points="158.16 133.44 158.16 148.12 161.16 151.05 174.63 151.05 175.23 150.45 175.83 149.85 175.83 148.12 175.83 139.31 178.17 136.98"/><polyline class="cls-4" points="161.16 154.06 175.83 154.06 178.77 151.05 178.77 137.58 178.17 136.98 177.57 136.38 175.83 136.38 167.03 136.38 164.69 134.04"/><polyline class="cls-4" points="175.23 150.45 174.08 149.3 172.9 148.12 164.09 148.12 162.36 148.12 161.76 147.52 161.16 146.92 161.16 133.44 164.09 130.44 178.77 130.44"/><rect class="cls-5" x="166.95" y="139.24" width="6.02" height="6.02"/><path class="cls-7" d="M182.11,299.08a18.66,18.66,0,0,1-.48,2.82h0A59.79,59.79,0,0,1,164.68,297l-1.27-.6c-1.8-.88-3.55-1.85-5.24-2.89h0l-.24-.15h0a61,61,0,0,1-8.53-6.45,18.11,18.11,0,0,1,8.24-6.34,3.78,3.78,0,0,0,1.57,3.72c1.21.84,6.6,4.44,10.23,6.86l3.41,2.27,6.9,1.85,1.6,3.68Z"/><path class="cls-7" d="M163.22,306.66A7.58,7.58,0,0,1,161.5,303l.46-4.92a1.39,1.39,0,0,1,.66-1.21l.79-.49c-1.8-.88-3.55-1.85-5.24-2.89h0l-.24-.15h0a61,61,0,0,1-8.53-6.45,17.92,17.92,0,0,0-2.91,6.29h0c1.39,8.75,17.61,18.55,26.26,21l0-.08a3.31,3.31,0,0,1,.93-1.37C167.63,310.28,164.74,308.38,163.22,306.66Zm-8.69-4.8a4.63,4.63,0,1,1,4.63-4.62A4.62,4.62,0,0,1,154.53,301.86Z"/><path class="cls-7" d="M172.72,314.18c-.52,1-3.35,5.3-3.35,5.3a109.74,109.74,0,0,1-13.08-8C154,309.87,146,304.27,146,296.75a18.48,18.48,0,0,1,.5-3.6C147.85,301.9,164.07,311.7,172.72,314.18Z"/><path class="cls-7" d="M182.18,297.45c0,.55,0,1.09-.07,1.63l-.79-.18-1.6-3.68-6.9-1.85-3.41-2.27c-3.63-2.42-9-6-10.23-6.86a3.78,3.78,0,0,1-1.57-3.72h0a17.88,17.88,0,0,1,5.14-1.14c.43,0,.87,0,1.31,0a18.09,18.09,0,0,1,18.12,18.11Z"/><path class="cls-7" d="M181.31,279.85l-4.57,4.66a18.06,18.06,0,0,0-12.68-5.17c-.44,0-.88,0-1.31,0a17.88,17.88,0,0,0-5.14,1.14h0a18.11,18.11,0,0,0-8.24,6.34l-5.13-4.05a24.64,24.64,0,0,1,37.07-3Z"/><path class="cls-7" d="M180,311.22a11,11,0,0,1-.83,1.81c-2.9-.27-4.9,1.17-8.35,6.77l-1.43-.32s2.83-4.3,3.35-5.3l0-.08a3.31,3.31,0,0,1,.93-1.37c1.19-1.05,4.6-1.62,4.93-2.13h0c.1-.23.21-.47.31-.71C180.3,310.62,180,311.22,180,311.22Z"/><path class="cls-7" d="M181.63,301.9A59.79,59.79,0,0,1,164.68,297l-1.27-.6-.79.49a1.39,1.39,0,0,0-.66,1.21L161.5,303a7.58,7.58,0,0,0,1.72,3.67c1.52,1.72,4.41,3.62,10.47,6.07,1.19-1.05,4.6-1.62,4.93-2.13h0c.1-.23.21-.47.31-.71a51.32,51.32,0,0,0,2.69-8Zm-6.3,4.79c-.75,2.62-2.52,4.41-4,4l0,0-.89-.22L169,309.6l-.66-1-.93-1.18-.43-1.62.81-2.87,1.23-1.14,1.41-.52,1.08-.48,1.71.07,1,.35h0C175.57,301.73,176.07,304.13,175.33,306.69Z"/><path class="cls-7" d="M174.21,301.23l-.1,0c-1.42-.41-3.19,1.38-3.94,4s-.22,5,1.16,5.47l-.89-.22L169,309.6l-.66-1-.93-1.18-.43-1.62.81-2.87,1.23-1.14,1.41-.52,1.08-.48,1.71.07Z"/><path class="cls-7" d="M175.33,306.69c-.75,2.62-2.52,4.41-4,4l0,0c-1.38-.45-1.91-2.88-1.16-5.47s2.52-4.41,3.94-4l.1,0h0C175.57,301.73,176.07,304.13,175.33,306.69Z"/><path class="cls-7" d="M179.15,313c-2.45,4.3-7.38,7-7.38,7l-1-.21C174.25,314.2,176.25,312.76,179.15,313Z"/><circle class="cls-7" cx="154.53" cy="297.24" r="4.62"/><path class="cls-7" d="M180.57,290c-5,1.29-10.72-3-10.72-3l-5.45-4.12.37-2-1.83-1-.19-.47"/><line class="cls-7" x1="169.41" y1="291.1" x2="169.85" y2="286.93"/><polygon class="cls-1" points="28.86 50.37 5.63 50.37 0 44.74 0 21.5 5.63 15.88 28.86 15.88 34.49 21.5 34.49 44.74 28.86 50.37"/><path class="cls-10" d="M27.31,34.7a9.48,9.48,0,0,1-.24,1.43h0a30.39,30.39,0,0,1-8.59-2.49l-.65-.31c-.91-.45-1.8-.94-2.66-1.47h0L15,31.78h0a30.73,30.73,0,0,1-4.33-3.27,9.18,9.18,0,0,1,4.18-3.21,1.92,1.92,0,0,0,.8,1.88c.61.43,3.34,2.25,5.18,3.48l1.73,1.15,3.5.94.81,1.86Z"/><path class="cls-10" d="M17.73,38.55a3.91,3.91,0,0,1-.87-1.86l.23-2.5a.72.72,0,0,1,.34-.61l.4-.25c-.91-.45-1.8-.94-2.66-1.47h0L15,31.78h0a30.73,30.73,0,0,1-4.33-3.27A9,9,0,0,0,9.24,31.7h0c.7,4.43,8.92,9.4,13.31,10.66l0,0a1.58,1.58,0,0,1,.47-.69C20,40.38,18.51,39.42,17.73,38.55Zm-4.4-2.44a2.34,2.34,0,1,1,2.34-2.34A2.34,2.34,0,0,1,13.33,36.11Z"/><path class="cls-10" d="M22.55,42.36c-.26.51-1.7,2.69-1.7,2.69A55.28,55.28,0,0,1,14.22,41C13.06,40.18,9,37.33,9,33.52a9.08,9.08,0,0,1,.26-1.82C9.94,36.13,18.16,41.1,22.55,42.36Z"/><path class="cls-10" d="M27.35,33.88c0,.28,0,.55,0,.82l-.4-.09-.81-1.86-3.5-.94-1.73-1.15c-1.84-1.23-4.57-3.05-5.18-3.48a1.92,1.92,0,0,1-.8-1.88h0a8.7,8.7,0,0,1,2.61-.58q.33,0,.66,0a9.15,9.15,0,0,1,6.43,2.63,9.18,9.18,0,0,1,2.76,6.56Z"/><path class="cls-10" d="M26.9,25l-2.31,2.36a9.15,9.15,0,0,0-6.43-2.63q-.33,0-.66,0a8.7,8.7,0,0,0-2.61.58h0a9.18,9.18,0,0,0-4.18,3.21l-2.6-2.05A12.46,12.46,0,0,1,26.9,25Z"/><path class="cls-10" d="M26.23,40.86a5.43,5.43,0,0,1-.42.92c-1.47-.14-2.49.59-4.23,3.43l-.73-.16s1.44-2.18,1.7-2.69l0,0a1.58,1.58,0,0,1,.47-.69c.61-.54,2.33-.83,2.5-1.09h0l.15-.36C26.4,40.55,26.23,40.86,26.23,40.86Z"/><path class="cls-10" d="M27.07,36.13a30.39,30.39,0,0,1-8.59-2.49l-.65-.31-.4.25a.72.72,0,0,0-.34.61l-.23,2.5a3.91,3.91,0,0,0,.87,1.86c.78.87,2.24,1.83,5.31,3.08.61-.54,2.33-.83,2.5-1.09h0l.15-.36a26.32,26.32,0,0,0,1.37-4Zm-3.2,2.43c-.38,1.33-1.27,2.24-2,2h0l-.46-.11L20.64,40l-.34-.5-.47-.6-.22-.82L20,36.67l.62-.58.71-.27.55-.24.87,0,.52.18h0C24,36.05,24.25,37.27,23.87,38.56Z"/><path class="cls-10" d="M23.3,35.8l0,0c-.73-.21-1.62.7-2,2s-.12,2.54.59,2.77l-.46-.11L20.64,40l-.34-.5-.47-.6-.22-.82L20,36.67l.62-.58.71-.27.55-.24.87,0Z"/><path class="cls-10" d="M23.87,38.56c-.38,1.33-1.27,2.24-2,2h0c-.71-.23-1-1.46-.59-2.77s1.27-2.24,2-2l0,0h0C24,36.05,24.25,37.27,23.87,38.56Z"/><path class="cls-10" d="M25.81,41.78a10.79,10.79,0,0,1-3.74,3.54l-.49-.11C23.32,42.37,24.34,41.64,25.81,41.78Z"/><circle class="cls-10" cx="13.33" cy="33.77" r="2.34"/><path class="cls-10" d="M26.53,30.09c-2.55.65-5.44-1.55-5.44-1.55l-2.76-2.08.19-1L17.59,25l-.09-.24"/><line class="cls-10" x1="20.87" y1="30.66" x2="21.09" y2="28.54"/><polygon class="cls-1" points="1286.76 247.8 1263.53 247.8 1257.9 242.17 1257.9 218.94 1263.53 213.31 1286.76 213.31 1292.39 218.94 1292.39 242.17 1286.76 247.8"/><path class="cls-10" d="M1285.2,232.14a8.54,8.54,0,0,1-.24,1.43h0a30.59,30.59,0,0,1-8.59-2.5l-.64-.31a29.83,29.83,0,0,1-2.66-1.46h0l-.12-.08h0a30.45,30.45,0,0,1-4.32-3.27,9.15,9.15,0,0,1,4.17-3.21,1.92,1.92,0,0,0,.8,1.88c.62.43,3.35,2.25,5.19,3.48l1.73,1.15,3.49.94.82,1.86Z"/><path class="cls-10" d="M1275.63,236a3.82,3.82,0,0,1-.87-1.86l.23-2.5a.71.71,0,0,1,.33-.61l.41-.25a29.83,29.83,0,0,1-2.66-1.46h0l-.12-.08h0a30.45,30.45,0,0,1-4.32-3.27,9.05,9.05,0,0,0-1.48,3.19h0c.71,4.44,8.93,9.4,13.32,10.66l0,0a1.71,1.71,0,0,1,.47-.69C1277.87,237.81,1276.4,236.85,1275.63,236Zm-4.4-2.43a2.35,2.35,0,1,1,2.34-2.35A2.35,2.35,0,0,1,1271.23,233.55Z"/><path class="cls-10" d="M1280.45,239.79c-.27.51-1.7,2.69-1.7,2.69a55.79,55.79,0,0,1-6.63-4.07c-1.16-.8-5.24-3.64-5.24-7.46a9.17,9.17,0,0,1,.25-1.82C1267.84,233.57,1276.06,238.53,1280.45,239.79Z"/><path class="cls-10" d="M1285.24,231.31a7.69,7.69,0,0,1,0,.83l-.39-.1-.82-1.86-3.49-.94-1.73-1.15c-1.84-1.23-4.57-3.05-5.19-3.48a1.92,1.92,0,0,1-.8-1.88h0a9.09,9.09,0,0,1,2.61-.58l.67,0a9.18,9.18,0,0,1,9.18,9.18Z"/><path class="cls-10" d="M1284.8,222.39l-2.32,2.36a9.14,9.14,0,0,0-6.42-2.62l-.67,0a9.09,9.09,0,0,0-2.61.58h0a9.15,9.15,0,0,0-4.17,3.21l-2.6-2.05a12.49,12.49,0,0,1,14.85-4.11A12.32,12.32,0,0,1,1284.8,222.39Z"/><path class="cls-10" d="M1284.13,238.29a7,7,0,0,1-.42.92c-1.47-.14-2.49.59-4.24,3.43l-.72-.16s1.43-2.18,1.7-2.69l0,0a1.71,1.71,0,0,1,.47-.69c.6-.53,2.33-.83,2.5-1.08h0c.06-.12.11-.24.16-.36C1284.29,238,1284.13,238.29,1284.13,238.29Z"/><path class="cls-10" d="M1285,233.57a30.59,30.59,0,0,1-8.59-2.5l-.64-.31-.41.25a.71.71,0,0,0-.33.61l-.23,2.5a3.82,3.82,0,0,0,.87,1.86c.77.87,2.24,1.83,5.31,3.08.6-.53,2.33-.83,2.5-1.08h0c.06-.12.11-.24.16-.36a25.17,25.17,0,0,0,1.36-4Zm-3.19,2.42c-.38,1.33-1.28,2.24-2,2h0l-.45-.12-.76-.43-.33-.49-.47-.61-.22-.82.41-1.45.62-.58.72-.26.55-.25.87,0,.52.18h0C1281.89,233.48,1282.14,234.7,1281.77,236Z"/><path class="cls-10" d="M1281.2,233.23l0,0c-.72-.21-1.62.7-2,2s-.11,2.54.59,2.78l-.45-.12-.76-.43-.33-.49-.47-.61-.22-.82.41-1.45.62-.58.72-.26.55-.25.87,0Z"/><path class="cls-10" d="M1281.77,236c-.38,1.33-1.28,2.24-2,2h0c-.7-.24-1-1.47-.59-2.78s1.28-2.24,2-2l0,0h0C1281.89,233.48,1282.14,234.7,1281.77,236Z"/><path class="cls-10" d="M1283.71,239.21a10.88,10.88,0,0,1-3.74,3.54l-.5-.11C1281.22,239.8,1282.24,239.07,1283.71,239.21Z"/><circle class="cls-10" cx="1271.23" cy="231.2" r="2.34"/><path class="cls-10" d="M1284.42,227.52c-2.54.65-5.43-1.54-5.43-1.54l-2.76-2.09.19-1-.93-.48-.1-.24"/><line class="cls-10" x1="1278.77" y1="228.09" x2="1278.99" y2="225.98"/></g></g></svg>